<?xml version="1.0" encoding="utf-8" ?><svg xmlns="http://www.w3.org/2000/svg" xmlns:xlink="http://www.w3.org/1999/xlink" width="395" height="395" viewBox="0 0 395 395"><path fill="#2D67AA" transform="scale(1.75556 1.75556)" d="M0 0L225 0L225 225L0 225L0 0Z"/><path fill="#FEFEFE" transform="scale(1.75556 1.75556)" d="M99.3594 39.8117C100.379 40.2036 114.912 54.9049 117.073 57.0166C113.671 66.0454 109.836 75.241 106.228 84.2198L87.2384 131.491C84.1712 139.128 80.8717 146.989 77.9966 154.667L52.2514 154.62L52.2558 147.875L52.2232 130.943C57.5341 128.933 63.8314 125.965 69.163 123.747C72.8174 122.227 79.5918 119.51 82.8564 117.754C83.8264 116.248 84.7429 113.483 85.4831 111.79C87.5406 107.086 89.4897 100.68 91.8965 96.2379C86.9899 98.6839 78.8416 101.876 73.5529 104.133L89.6556 64.1296C92.8609 56.1531 96.3464 47.8355 99.3594 39.8117Z"/><path fill="#FEFEFE" transform="scale(1.75556 1.75556)" d="M114.216 31.0659C119.317 30.6669 128.864 30.9974 134.421 30.997L175.509 30.9989L175.532 92.0994C171.698 88.7965 165.626 82.3502 161.814 78.5678L133.354 50.2493L120.239 37.2176C119.246 36.2368 114.81 31.9982 114.216 31.0659Z"/><path fill="#FEFEFE" transform="scale(1.75556 1.75556)" d="M129.597 69.6634C131.684 71.328 136.699 76.58 138.826 78.7014L157.158 96.9946C160.113 99.9435 164.513 104.58 167.595 107.199C164.258 108.318 158.26 111.095 154.776 112.582L130.061 123.142C122.313 126.555 111.424 131.411 103.683 134.302L120.313 92.9281C123.354 85.3772 126.829 77.2246 129.597 69.6634Z"/><path fill="#FEFEFE" transform="scale(1.75556 1.75556)" d="M52.2519 30.9972L85.4078 30.9911C82.9305 36.511 80.229 43.8069 77.9433 49.5027L61.9507 89.2211C58.9503 97.1488 55.4327 105.661 52.2035 113.53C52.608 86.3315 52.2547 58.2617 52.2519 30.9972Z"/><path fill="#FEFEFE" transform="scale(1.75556 1.75556)" d="M175.275 121.553C175.709 122.128 175.528 151.253 175.527 154.663C172.815 154.589 169.914 154.623 167.188 154.658C144.466 154.957 121.552 154.238 98.8468 154.757C98.7783 154.703 98.7501 154.533 98.7144 154.419C99.5286 153.844 104.168 151.933 105.376 151.419L119.584 145.379L175.275 121.553Z"/><path fill="#FEFEFE" transform="scale(1.75556 1.75556)" d="M150.458 169.317C151.097 164.942 156.46 162.928 160.251 163.96C166.182 165.575 167.724 173.445 162.379 176.898C160.468 178.111 158.151 178.509 155.945 178.003C151.927 177.101 150.445 174.122 150.192 170.329L150.458 169.317Z"/><path fill="#2D67AA" transform="scale(1.75556 1.75556)" d="M156.905 166.101C159.595 165.531 162.235 167.262 162.785 169.956C163.335 172.65 161.586 175.277 158.887 175.807C156.217 176.332 153.624 174.604 153.079 171.938C152.535 169.272 154.243 166.665 156.905 166.101Z"/><path fill="#FEFEFE" transform="scale(1.75556 1.75556)" d="M148.403 171.665C147.671 177.059 142.386 179.486 137.507 177.582C131.377 175.191 131.758 166.195 137.86 164.156C142.679 162.545 146.965 164.811 148.382 169.664C148.39 170.235 148.432 171.123 148.403 171.665Z"/><path fill="#2D67AA" transform="scale(1.75556 1.75556)" d="M139.694 166.112C142.355 165.532 144.985 167.205 145.588 169.861C146.19 172.517 144.538 175.162 141.887 175.786C140.419 176.132 138.874 175.791 137.688 174.86C136.501 173.928 135.803 172.508 135.79 171C135.77 168.652 137.4 166.612 139.694 166.112Z"/><path fill="#FEFEFE" transform="scale(1.75556 1.75556)" d="M105.88 182.073C109.565 182.347 114.405 181.417 117.481 183.852C120.716 186.413 120.346 191.094 118.008 194.057C114.52 197.037 110.417 196.379 105.947 196.325C105.803 191.705 105.923 186.738 105.88 182.073Z"/><path fill="#2D67AA" transform="scale(1.75556 1.75556)" d="M108.611 184.273C111.155 184.305 113.507 184.194 115.652 185.815C118.243 187.772 117.46 190.709 115.61 192.873C113.851 194.252 110.806 194.044 108.609 194.06L108.611 184.273Z"/><path fill="#FEFEFE" transform="scale(1.75556 1.75556)" d="M104.704 163.951C107.648 163.897 115.343 163.059 116.645 166.564C117.136 167.884 116.001 169.462 115.349 170.572C116.273 173.094 118.404 171.925 116.913 175.967C114.478 178.779 108.232 178.015 104.609 177.984C104.859 174.298 104.641 167.909 104.704 163.951Z"/><path fill="#2D67AA" transform="scale(1.75556 1.75556)" d="M107.44 171.991C109.75 171.886 113.119 171.262 114.488 173.361C114.627 174.278 114.499 174.517 114.177 175.397C112.096 176.066 109.634 175.983 107.442 175.996L107.44 171.991Z"/><path fill="#2D67AA" transform="scale(1.75556 1.75556)" d="M107.46 165.974C109.628 165.916 112.504 165.399 113.799 167.362C113.959 168.227 113.809 168.453 113.442 169.269C111.91 169.98 109.203 169.894 107.43 169.943L107.46 165.974Z"/><path fill="#FEFEFE" transform="scale(1.75556 1.75556)" d="M47.4323 174.715C48.0901 172.502 49.9892 164.443 51.874 163.657C54.486 164.036 56.577 172.861 56.8042 175.203C57.5641 172.797 59.5543 165.994 60.6253 164.243C61.1656 163.826 62.2754 163.692 62.83 164.169C62.9815 164.971 62.404 166.24 62.1095 167.064C61.4295 169.152 59.132 177.779 57.5131 178.412C54.974 178.49 52.8953 170.302 52.3721 168.219L52.0315 168.109C50.9423 170.476 49.4421 180.639 45.6418 177.523C44.9891 175.836 41.0969 165.091 41.4656 164.046L42.3456 163.703L43.465 163.891C44.5315 164.897 46.7991 172.765 47.4323 174.715Z"/><path fill="#FEFEFE" transform="scale(1.75556 1.75556)" d="M119.741 163.969C124.219 163.875 132.955 162.698 131.477 170.39C131.195 171.859 129.705 172.788 128.473 173.451C129.346 174.405 131.361 176.537 131.388 177.809L130.722 178.249C125.832 177.267 129.088 173.402 122.472 173.987C122.463 175.056 122.743 176.925 122.231 177.643C121.571 178.138 120.592 177.964 119.737 177.918L119.741 163.969Z"/><path fill="#2D67AA" transform="scale(1.75556 1.75556)" d="M122.495 166.066C125.939 165.992 130.984 166.254 128.081 171.14C126.203 171.924 124.522 171.766 122.498 171.755L122.495 166.066Z"/><path fill="#FEFEFE" transform="scale(1.75556 1.75556)" d="M143.97 191.456C145.194 189.344 148.718 182.501 150.647 181.953C152.654 182.857 151.382 192.681 151.75 194.785C151.913 195.721 151.517 196.117 150.719 196.492C148.464 195.951 149.16 192.817 149.212 190.839C149.075 189.145 149.138 188.283 149.271 186.578C147.786 189.266 145.88 192.95 143.898 195.199C142.895 193.91 139.662 188.423 139.089 187.975C137.699 188.909 140.209 196.151 137.414 196.717C135.583 195.64 136.044 184.319 136.38 182.071C136.87 182.112 137.492 182.215 137.992 182.282C139.605 183.269 142.796 189.439 143.97 191.456Z"/><path fill="#FEFEFE" transform="scale(1.75556 1.75556)" d="M95.1134 182.049L97.6349 182.247C98.6628 184.435 103.563 194.448 103.562 196.108L103.163 196.495C101.002 196.798 100.379 194.582 99.8776 193.029L96.9693 192.95L92.6655 193.028C92.2077 194.45 92.0824 195.49 90.8824 196.287C90.0637 196.327 89.9198 196.288 89.1418 196.102L88.9417 195.756C89.2035 194.306 94.1779 183.714 95.1134 182.049Z"/><path fill="#2D67AA" transform="scale(1.75556 1.75556)" d="M96.0915 185.125C96.9051 185.605 98.9561 189.854 98.16 190.885L97.0458 190.95L93.6117 191.002L96.0915 185.125Z"/><path fill="#FEFEFE" transform="scale(1.75556 1.75556)" d="M65.6667 182.215C68.3235 182.083 68.327 181.973 69.4515 184.461C71.2468 188.433 73.028 192.415 74.8149 196.391L71.8458 196.241C70.9879 193.802 71.1916 192.94 68.3963 192.953L63.4562 193.034C63.0214 193.98 62.5293 195.393 62.1462 196.4C61.1912 196.338 60.2317 196.331 59.2746 196.315L65.6667 182.215Z"/><path fill="#2D67AA" transform="scale(1.75556 1.75556)" d="M66.8355 185.118C67.4982 185.626 69.2431 189.798 69.4143 190.678C68.756 191.1 68.4542 190.954 67.5393 190.982L64.3533 190.994C65.206 189.046 66.0334 187.087 66.8355 185.118Z"/><path fill="#FEFEFE" transform="scale(1.75556 1.75556)" d="M129.186 182.126C130.603 182.114 132.335 181.68 133.05 182.964C132.998 183.74 133.115 183.636 132.726 184.212C131.378 184.51 127.028 184.317 125.328 184.302C125.349 185.507 125.311 186.825 125.3 188.039C127.187 187.996 130.906 187.65 132.405 188.872L132.428 189.359C131.056 190.593 127.168 190.223 125.319 190.156C125.409 191.726 124.87 192.873 125.752 193.992L126.778 194.047C128.433 194.068 132.315 193.424 133.255 194.807C133.192 195.691 133.343 195.701 132.868 196.228C131.238 196.564 124.525 196.315 122.546 196.286C122.648 191.737 122.56 186.798 122.563 182.219L129.186 182.126Z"/><path fill="#FEFEFE" transform="scale(1.75556 1.75556)" d="M179.836 163.784L180.481 163.975C180.415 165.013 176.121 169.16 175.003 170.359C176.381 171.699 180.331 176.173 180.63 177.909L180.139 178.348C177.371 177.552 175.101 174.331 173.278 172.126C172.376 173.076 171.422 173.893 171.027 175.125C171.039 175.855 171.023 176.432 170.982 177.162C170.428 177.968 170.725 177.749 169.821 178.13C169.11 178.093 169.034 178.018 168.485 177.553C168.233 175.543 168.23 166.413 168.463 164.382L168.819 164.103C169.509 164.024 170.266 163.839 170.839 164.19C171.199 164.746 171.054 170.004 171.066 171.141C173.363 168.774 176.541 164.059 179.836 163.784Z"/><path fill="#FEFEFE" transform="scale(1.75556 1.75556)" d="M65.3488 163.838C67.5938 163.954 74.0621 163.6 75.5995 164.272C75.8199 165.013 75.8216 164.705 75.6045 165.436C74.4281 166.49 69.8668 166.08 67.9737 166.058L67.995 169.774C69.6956 169.736 74.2643 169.394 75.2364 170.908C74.6153 172.268 69.647 171.995 68.2964 171.977L68.1422 172.132C67.8089 172.96 67.968 174.781 67.996 175.754C70.1305 175.782 73.6629 175.328 75.4381 176.049C76.047 176.714 75.8988 176.403 75.9304 177.372L75.5751 177.738C73.7084 178.217 67.5964 178.006 65.2868 177.989C65.5212 174.309 65.3436 167.714 65.3488 163.838Z"/><path fill="#FEFEFE" transform="scale(1.75556 1.75556)" d="M82.0302 163.807C83.9278 163.566 87.1688 163.57 88.4054 165.176C88.3803 166.106 88.5179 165.801 87.9695 166.39C86.2477 166.902 80.9134 164.486 80.7128 167.903C81.9248 170.124 88.8048 170 89.2516 173.537C89.6568 176.744 86.7586 177.768 84.2836 178.198C82.7417 178.285 79.0288 178.026 78.1521 176.587C78.106 175.773 78.1861 175.654 78.5456 174.94C79.5497 174.659 86.1678 177.899 86.6056 174.069C85.4035 172.001 79.1238 172.205 78.2697 168.822C77.5194 165.851 79.5488 164.588 82.0302 163.807Z"/><path fill="#FEFEFE" transform="scale(1.75556 1.75556)" d="M80.6867 182.04C82.9542 181.867 87.0618 181.887 87.3746 184.914C86.3374 186.417 82.0095 183.441 79.8318 184.699C74.6034 187.719 77.6763 196.268 84.6167 193.56C85.1143 193.197 85.3717 193.087 85.9137 192.834C86.7807 192.91 86.4761 192.777 87.107 193.283C87.9983 197.026 80.6488 196.974 78.0483 195.486C76.3551 194.516 75.1367 192.89 74.6798 190.993C74.2079 189.094 74.519 187.085 75.543 185.418C76.8026 183.373 78.4696 182.548 80.6867 182.04Z"/><path fill="#FEFEFE" transform="scale(1.75556 1.75556)" d="M160.576 189.018C161.484 187.419 163.622 183.348 164.909 182.324C165.653 182.123 165.997 181.982 166.76 182.108C166.991 183.354 164.993 186.14 164.233 187.374C161.695 191.375 161.733 191.636 161.778 196.28L159.231 196.425C159.272 194.828 159.229 193.134 159.215 191.528C158.328 190.062 153.975 183.12 153.768 182.047C155.117 182.022 156.072 181.966 156.982 183.093C158.402 184.853 159.456 187.033 160.576 189.018Z"/><path fill="#FEFEFE" transform="scale(1.75556 1.75556)" d="M90.2317 163.979C92.6921 163.937 100.248 163.62 102.165 164.229L102.453 164.809C102.304 165.649 102.467 165.353 101.843 165.925C100.815 166.3 98.8965 166.101 97.7187 166.049L97.7072 174.062C97.7445 175.217 97.9473 177.033 97.361 177.928C96.6278 177.926 95.7234 178.021 95.1577 177.635C94.8184 176.149 94.9847 168.235 94.9936 166.103C93.7138 166.153 91.7753 166.423 90.7206 165.894C90.0751 165.15 90.2837 165.208 90.2317 163.979Z"/><path fill="#2D67AA" transform="scale(1.75556 1.75556)" d="M148.382 169.664L148.461 169.206L148.998 169.087C149.584 169.316 149.83 169.351 150.458 169.317L150.192 170.329C149.983 172.002 150.243 171.523 149.363 172.715L148.976 172.891C148.402 172.479 148.574 172.566 148.403 171.665C148.432 171.123 148.39 170.235 148.382 169.664Z"/></svg>